<?xml version="1.0" encoding="UTF-8" standalone="no"?>
<svg
   id="emoji"
   viewBox="0 0 52 47.203739"
   version="1.1"
   sodipodi:docname="mushroom.svg"
   inkscape:version="1.4.3rc (9500139e98, 2025-12-13)"
   width="52"
   height="47.203739"
   xmlns:inkscape="http://www.inkscape.org/namespaces/inkscape"
   xmlns:sodipodi="http://sodipodi.sourceforge.net/DTD/sodipodi-0.dtd"
   xmlns="http://www.w3.org/2000/svg"
   xmlns:svg="http://www.w3.org/2000/svg">
  <defs
     id="defs12" />
  <sodipodi:namedview
     id="namedview12"
     pagecolor="#ffffff"
     bordercolor="#000000"
     borderopacity="0.25"
     inkscape:showpageshadow="2"
     inkscape:pageopacity="0.0"
     inkscape:pagecheckerboard="0"
     inkscape:deskcolor="#d1d1d1"
     inkscape:zoom="16.972222"
     inkscape:cx="25.983634"
     inkscape:cy="26.042554"
     inkscape:window-width="2560"
     inkscape:window-height="1371"
     inkscape:window-x="0"
     inkscape:window-y="0"
     inkscape:window-maximized="1"
     inkscape:current-layer="emoji" />
  <path
     fill="#d0cfce"
     stroke="#d0cfce"
     stroke-linecap="round"
     stroke-linejoin="round"
     stroke-miterlimit="10"
     stroke-width="2"
     d="m 17.1284,33.0032 v 11.2545 c 0,0 -0.1171,1.9012 2.5264,1.9012 2.6435,0 11.7694,0 11.7694,0 0,0 2.2545,0.5562 2.2545,-2.4086 0,-1.6448 0,-6.6322 0,-10.7472"
     id="path1" />
  <path
     fill="#d0cfce"
     stroke="none"
     stroke-linecap="round"
     stroke-linejoin="round"
     stroke-miterlimit="10"
     stroke-width="2"
     d="m 17.1284,36.7738 v 8.0389 c 0,0 -0.1171,1.358 2.5264,1.358 2.6435,0 11.7694,0 11.7694,0 0,0 2.2545,0.3973 2.2545,-1.7204 0,-1.1748 0,-4.7373 0,-7.6766"
     id="path2" />
  <path
     fill="#ea5a47"
     stroke="none"
     d="M 51,24 C 51,32.8366 39.8071,33 26,33 12.1929,33 1,32.8366 1,24 1,15.1634 12.1929,1 26,1 39.8071,1 51,15.1634 51,24 Z"
     id="path3"
     style="fill:#a584a5;fill-opacity:1" />
  <path
     fill="none"
     stroke="#ffffff"
     stroke-linecap="round"
     stroke-linejoin="round"
     stroke-miterlimit="10"
     stroke-width="2"
     d="M 51,24 C 51,32.8366 39.8071,33 26,33 12.1929,33 1,32.8366 1,24 1,15.1634 12.1929,1 26,1 39.8071,1 51,15.1634 51,24 Z"
     id="path4" />
  <path
     fill="#d22f27"
     stroke="none"
     d="m 51,24.0007 c 0,8.8374 -11.194,9.0023 -25.0039,9.0023 33.1736,-7.5962 0,-32.0031 0,-32.0031 C 39.806,0.9999 51,15.1633 51,24.0007 Z"
     id="path5"
     style="fill:#834183;fill-opacity:1" />
  <path
     fill="#ffffff"
     stroke="none"
     stroke-linecap="round"
     stroke-linejoin="round"
     stroke-miterlimit="10"
     stroke-width="2"
     d="m 12.7461,5.4285 c 0,0 4.6919,14.1211 -10.9254,14.0122 0,-10e-5 3.005,-9.0637 10.9254,-14.0122 z"
     id="path6" />
  <ellipse
     cx="25.211035"
     cy="21.16963"
     rx="8.021039"
     ry="6.1760845"
     transform="rotate(-2.189166)"
     fill="#ffffff"
     stroke="none"
     stroke-linecap="round"
     stroke-linejoin="round"
     stroke-miterlimit="10"
     stroke-width="2.00006"
     id="ellipse6" />
  <path
     fill="#d0cfce"
     stroke="none"
     stroke-linecap="round"
     stroke-linejoin="round"
     stroke-miterlimit="10"
     stroke-width="2"
     d="m 39.1591,5.4285 c 0,0 -4.6919,14.1211 10.9254,14.0122 -10e-5,-10e-5 -3.0051,-9.0637 -10.9254,-14.0122 z"
     id="path7" />
  <g
     id="hair"
     transform="translate(-9.996,-9.9584)" />
  <g
     id="skin"
     transform="translate(-9.996,-9.9584)" />
  <g
     id="skin-shadow"
     transform="translate(-9.996,-9.9584)" />
  <g
     id="line"
     transform="translate(-9.996,-9.9584)">
    <path
       fill="none"
       stroke="#000000"
       stroke-linecap="round"
       stroke-linejoin="round"
       stroke-miterlimit="10"
       stroke-width="2"
       d="m 27.1244,46.7322 v 8.0389 c 0,0 -0.1171,1.358 2.5264,1.358 2.6435,0 11.7694,0 11.7694,0 0,0 2.2545,0.3973 2.2545,-1.7204 0,-1.1748 0,-4.7373 0,-7.6766"
       id="path8" />
    <path
       fill="none"
       stroke="#000000"
       stroke-linecap="round"
       stroke-linejoin="round"
       stroke-miterlimit="10"
       stroke-width="2"
       d="m 60.996,33.9584 c 0,8.8366 -11.1929,9 -25,9 -13.8071,0 -25,-0.1634 -25,-9 0,-8.8366 11.1929,-23 25,-23 13.8071,0 25,14.1634 25,23 z"
       id="path9" />
    <path
       fill="none"
       stroke="#000000"
       stroke-linecap="round"
       stroke-linejoin="round"
       stroke-miterlimit="10"
       stroke-width="2"
       d="m 60.996,33.9584 c 0,8.8366 -11.1929,9 -25,9 -13.8071,0 -25,-0.1634 -25,-9 0,-8.8366 11.1929,-23 25,-23 13.8071,0 25,14.1634 25,23 z"
       id="path10" />
    <path
       fill="none"
       stroke="#000000"
       stroke-linecap="round"
       stroke-linejoin="round"
       stroke-miterlimit="10"
       stroke-width="2"
       d="m 22.7421,15.3869 c 0,0 4.6919,14.1211 -10.9254,14.0122 0,-10e-5 3.005,-9.0637 10.9254,-14.0122 z"
       id="path11" />
    <ellipse
       cx="35.995998"
       cy="30.148899"
       rx="8.0207996"
       ry="6.1759"
       transform="matrix(0.9993,-0.0382,0.0382,0.9993,-1.1252,1.3968)"
       fill="none"
       stroke="#000000"
       stroke-linecap="round"
       stroke-linejoin="round"
       stroke-miterlimit="10"
       stroke-width="2"
       id="ellipse11" />
    <path
       fill="none"
       stroke="#000000"
       stroke-linecap="round"
       stroke-linejoin="round"
       stroke-miterlimit="10"
       stroke-width="2"
       d="m 49.1551,15.3869 c 0,0 -4.6919,14.1211 10.9254,14.0122 -1e-4,-10e-5 -3.0051,-9.0637 -10.9254,-14.0122 z"
       id="path12" />
  </g>
</svg>
